<?xml version="1.0" standalone="no"?><!DOCTYPE svg PUBLIC "-//W3C//DTD SVG 1.1//EN" "http://www.w3.org/Graphics/SVG/1.1/DTD/svg11.dtd"><svg t="1624346263689" class="icon" viewBox="0 0 1024 1024" version="1.1" xmlns="http://www.w3.org/2000/svg" p-id="1747" xmlns:xlink="http://www.w3.org/1999/xlink" width="200" height="200"><defs><style type="text/css"></style></defs><path d="M521.8048 886.1568c-58.88 0-175.2192-11.52-256-94.1696-34.24-35.0336-57.6-78.08-67.6608-124.544-10.24-47.5136-5.5424-94.3232 13.6064-135.3728 32.3328-69.2608 98.048-103.9232 156.032-134.5024 56.0896-29.5808 104.5248-55.1296 113.2544-103.8464 5.12-28.8-5.2096-52.48-14.3744-73.4592-4.7744-10.9312-8.896-20.3648-10.4832-29.8112-3.1488-18.7264 5.3376-29.7472 13.0176-35.6864 29.9904-23.2192 92.4032-2.2784 126.9376 12.2624 55.9488 23.5776 111.8464 60.16 153.344 100.5056 62.976 61.1712 108.032 144.64 123.6096 228.864 8.5248 46.08 8.0768 90.7392-1.28 132.8384A289.6512 289.6512 0 0 1 809.8688 753.92c-29.7728 35.3408-114.3168 118.8608-256.1024 130.9824-6.08 0.5376-17.2288 1.2544-31.9616 1.2544zM494.08 184.32c0.8064 4.5184 4.8 13.6192 7.808 20.48 10.24 23.36 24.2176 55.36 16.9856 95.6416-12.0448 67.1616-73.6 99.6224-133.12 131.0336-55.1936 29.1072-112.2688 59.2128-139.136 116.7744-31.936 68.4288-13.1712 155.5712 46.7072 216.832 90.7648 92.8512 240.4096 82.944 257.1776 81.5104 127.488-10.9056 203.328-85.76 230.016-117.4656 109.6064-130.0864 56.7168-322.8672-57.7536-434.048-38.1952-37.12-89.7664-70.8736-141.4912-92.6592C530.5216 181.0304 502.016 180.8256 494.08 184.32z" p-id="1748"></path><path d="M557.3248 834.3808c-41.92 7.68-121.2416 14.5152-181.568-26.88-50.6624-34.7904-76.4544-94.5664-62.72-145.3568 11.264-41.7024 48.64-70.5536 91.9168-103.9616 54.2592-41.9072 121.792-94.0416 121.7536-178.5344v-0.4992c-0.0896-20.48 25.1392-34.7136 45.76-25.7024A355.1488 355.1488 0 0 1 623.36 380.48c54.2336 35.2128 100.1472 91.1232 122.8032 149.568 17.3568 44.8 29.7216 112.2816-9.8432 179.8272a267.8912 267.8912 0 0 1-158.528 119.9744c-2.688 0.7168-9.92 2.5856-20.4672 4.5312z" fill="#EB9650" p-id="1749"></path><path d="M518.0288 824.1408c-23.04-0.3072-65.9072-5.312-93.5552-35.3152-23.2192-25.216-30.6048-61.7088-17.92-88.768 10.3936-22.208 33.28-34.2912 59.7888-48.2816 33.28-17.5488 74.6112-39.3856 83.5072-86.9376a1.8304 1.8304 0 0 0 0-0.2816c2.1248-11.52 17.024-16.7424 27.0208-9.3696a194.2144 194.2144 0 0 1 24.128 20.8768c25.0752 25.8304 43.52 62.4 49.3952 97.8048 4.48 27.1104 3.9168 66.4704-24.2432 100.0832a144.64 144.64 0 0 1-30.72 27.0976 137.4336 137.4336 0 0 1-66.1504 22.8096c-1.408 0.1024-5.4528 0.3584-11.2512 0.2816z" fill="#F4C197" p-id="1750"></path></svg>